<svg xmlns="http://www.w3.org/2000/svg" width="24" height="24" viewBox="0 0 24 24" fill="none">
  <style>
    :root {
      --favicon-stroke: #000;
    }

    @media (prefers-color-scheme: dark) {
      :root {
        --favicon-stroke: #fff;
      }
    }
  </style>
  <g stroke="var(--favicon-stroke)" stroke-width="2" stroke-linecap="round" stroke-linejoin="round">
    <path d="m15 12-9.373 9.373a1 1 0 0 1-3.001-3L12 9"/>
    <path d="m18 15 4-4"/>
    <path d="m21.5 11.5-1.914-1.914A2 2 0 0 1 19 8.172v-.344a2 2 0 0 0-.586-1.414l-1.657-1.657A6 6 0 0 0 12.516 3H9l1.243 1.243A6 6 0 0 1 12 8.485V10l2 2h1.172a2 2 0 0 1 1.414.586L18.5 14.5"/>
    <path d="M10.8 6.5C9.5 4.5 7.7 3.5 5.7 3.7"/>
    <path d="M10.6 7.9C9 6.8 7.4 6.5 6 7"/>
    <path d="M10.2 9.2C9.2 8.8 8.2 8.9 7.2 9.5"/>
    <path d="M15 5.9c1.3-1.6 3-2.4 4.9-2.3"/>
    <path d="M16 7.3c1.5-.8 3.1-.8 4.5-.2"/>
    <path d="M16.9 8.8c1 .5 1.8 1.2 2.4 2.2"/>
  </g>
</svg>
