<svg xmlns="http://www.w3.org/2000/svg" width="906" height="894" viewBox="0 0 905.517711 894.04496">
  <style>
    :root {
      --favicon-fill: #000;
    }

    @media (prefers-color-scheme: dark) {
      :root {
        --favicon-fill: #fff;
      }
    }
  </style>
  <g transform="translate(-58.048702,932.144064) scale(0.1,-0.1)" fill="var(--favicon-fill)">
    <path d="M721 9306 c-20 -24 -33 -114 -38 -266 -9 -251 25 -423 126 -636 52 -107 91 -172 203 -334 82 -119 524 -524 683 -625 17 -11 62 -43 102 -72 40 -29 76 -53 81 -53 5 0 16 -7 23 -16 7 -9 22 -20 34 -25 11 -5 52 -30 90 -54 39 -24 84 -52 100 -61 68 -38 503 -309 546 -340 53 -38 66 -61 47 -80 -27 -27 -142 17 -538 207 -80 39 -188 94 -240 123 -52 29 -117 66 -145 81 -76 43 -134 76 -203 120 -88 56 -312 204 -342 227 -152 114 -216 169 -339 291 -79 78 -156 159 -171 179 -60 82 -104 128 -121 128 -45 0 -50 -87 -18 -309 39 -270 119 -470 276 -689 53 -75 186 -215 228 -242 17 -11 41 -29 55 -42 35 -33 140 -106 241 -166 162 -99 486 -236 764 -323 433 -135 631 -208 650 -239 4 -7 -1 -20 -13 -32 -20 -20 -20 -20 -253 11 -129 17 -252 35 -274 40 -22 5 -60 14 -85 20 -25 5 -65 14 -90 20 -25 5 -88 19 -140 31 -113 25 -422 122 -500 157 -190 86 -262 121 -318 155 -78 48 -102 49 -102 8 0 -74 116 -309 215 -436 153 -195 411 -356 650 -404 22 -4 74 -15 115 -23 134 -28 289 -40 595 -44 165 -2 310 -6 323 -8 25 -6 30 -36 9 -54 -8 -6 -33 -17 -56 -25 -23 -9 -56 -22 -74 -30 -109 -49 -330 -101 -522 -122 -230 -25 -305 -36 -311 -45 -15 -26 189 -166 329 -227 145 -63 202 -74 412 -79 194 -5 289 4 365 35 51 21 1123 1092 1150 1149 66 140 41 419 -55 617 -85 175 -164 272 -325 397 -175 136 -295 205 -890 507 -314 159 -413 210 -517 268 -24 13 -64 36 -90 50 -402 223 -742 456 -1049 720 -121 104 -326 311 -363 367 -9 14 -51 66 -94 116 -79 93 -109 110 -136 77z"/>
    <path d="M3825 9000 c-71 -13 -133 -38 -185 -76 -62 -44 -87 -76 -124 -153 -28 -60 -31 -75 -31 -167 0 -97 1 -104 39 -180 37 -74 59 -98 326 -364 157 -157 318 -322 357 -368 209 -244 361 -534 438 -838 40 -158 55 -269 55 -419 l0 -141 -1857 -1856 c-1022 -1021 -1886 -1887 -1920 -1926 -35 -38 -83 -99 -108 -136 -54 -79 -147 -263 -165 -326 -7 -25 -16 -56 -20 -70 -37 -119 -49 -406 -22 -540 42 -210 90 -325 219 -524 44 -67 201 -231 252 -264 14 -9 49 -33 76 -53 42 -31 109 -66 250 -130 11 -5 45 -17 75 -25 30 -9 77 -22 104 -30 285 -81 693 -10 958 167 33 21 62 39 65 39 19 0 325 301 1618 1591 2171 2167 2274 2269 2299 2269 61 0 130 -51 310 -228 257 -252 386 -385 386 -400 0 -7 -9 -42 -21 -78 -44 -138 -5 -280 111 -395 60 -61 96 -81 185 -105 125 -34 253 1 361 100 71 65 287 279 450 446 78 80 381 382 672 672 503 500 587 589 625 666 65 132 32 303 -81 425 -61 64 -129 103 -221 123 -62 14 -82 15 -130 4 -31 -7 -69 -19 -84 -27 -16 -8 -35 -13 -42 -11 -22 5 -522 505 -571 571 -57 76 -74 139 -74 272 0 271 -40 459 -138 653 -91 179 -163 262 -628 722 -334 330 -499 479 -634 573 -14 9 -45 33 -70 52 -25 19 -52 38 -60 42 -8 3 -22 12 -31 20 -28 24 -239 133 -349 180 -58 24 -119 51 -137 59 -17 8 -34 14 -38 14 -4 0 -21 6 -38 14 -132 58 -460 128 -691 148 -159 13 -1690 20 -1761 8z m1747 -810 c24 -5 84 -16 133 -25 205 -35 325 -75 525 -175 170 -85 350 -203 433 -282 19 -18 56 -53 83 -76 130 -116 740 -734 774 -785 52 -77 58 -104 70 -298 18 -316 45 -430 147 -633 82 -163 147 -241 480 -573 123 -123 223 -230 223 -239 0 -16 -631 -654 -647 -654 -4 0 -117 109 -252 243 -381 376 -483 455 -693 531 -171 61 -283 76 -621 80 l-127 1 -289 290 -289 290 -6 285 c-10 454 -36 684 -108 955 -15 56 -84 245 -113 310 -8 17 -26 59 -40 95 -65 157 -178 347 -327 547 -37 50 -68 98 -68 107 0 14 35 16 335 16 184 0 354 -4 377 -10z m-335 -3162 c177 -177 323 -327 323 -333 0 -9 -2964 -2980 -3303 -3310 -153 -150 -246 -195 -407 -197 -84 -1 -155 23 -244 83 -144 97 -212 235 -204 417 3 84 8 106 35 163 17 36 57 94 89 129 59 67 3347 3349 3367 3362 7 4 14 8 16 8 2 0 150 -145 328 -322z"/>
    <path d="M6490 4119 c-72 -60 -1183 -1175 -1191 -1196 -35 -93 27 -402 113 -563 87 -162 205 -313 242 -308 20 3 21 10 27 208 9 308 33 440 125 698 19 51 49 71 72 49 11 -12 16 -45 18 -144 15 -585 66 -826 238 -1116 43 -72 132 -170 226 -249 75 -64 124 -94 235 -148 130 -63 273 -109 297 -94 16 10 7 39 -31 98 -53 81 -122 210 -177 326 -24 52 -49 103 -55 114 -40 69 -131 360 -174 556 -44 203 -55 276 -58 385 -2 90 -2 90 24 93 37 4 51 -18 102 -168 130 -382 206 -571 324 -805 32 -64 209 -338 236 -368 7 -6 43 -47 81 -89 208 -236 477 -392 756 -442 148 -26 428 -26 454 0 22 21 7 47 -47 81 -178 114 -442 347 -591 521 -172 201 -343 437 -439 607 -28 50 -56 97 -63 105 -28 34 -114 217 -114 243 0 23 4 27 28 27 37 -1 63 -24 108 -95 81 -130 316 -432 470 -605 185 -208 361 -370 534 -492 77 -55 275 -159 344 -182 26 -9 57 -21 68 -27 11 -6 66 -22 121 -37 90 -23 122 -26 272 -26 155 0 179 3 268 28 132 37 187 62 187 86 0 25 -25 48 -74 68 -96 38 -361 179 -498 265 -233 145 -535 395 -756 625 -125 130 -332 358 -398 439 -364 443 -361 439 -432 469 -85 35 -184 107 -259 188 -96 105 -163 285 -163 444 -1 37 -6 76 -13 88 -23 41 -283 305 -328 334 -54 35 -75 37 -109 9z"/>
  </g>
</svg>
